#!OML:ASF H:\Dans Jumps\Project 1\Capture day 1\Session 1\subject.ASF
:FULLY-SPECIFIED
:DEGREES
581
root 0.434491 17.6542 -6.4655 11.1759 -1.01928 -1.64407
lowerback 4.54414 0.586814 -0.0146172
upperback 5.31828 0.7581 0.986592
thorax 2.91335 0.357428 1.0086
lowerneck -13.4358 0.060228 -0.910188
upperneck 30.6909 -0.0212293 1.12125
head 12.3599 0.0302805 0.581049
rclavicle 5.96354e-015 5.96354e-015
rhumerus -34.2891 -10.548 -79.5141
rradius 32.0603
rwrist 28.1527
rhand -17.1825 -26.2381
rfingers 7.12502
rthumb 9.05925 -56.0236
lclavicle 5.96354e-015 5.96354e-015
lhumerus -34.4912 0.996122 84.0234
lradius 24.2369
lwrist 13.7476
lhand -27.6932 -4.92955
lfingers 7.12502
lthumb -1.08964 25.0474
rfemur -24.8046 -1.77355 19.1352
rtibia 27.2234
rfoot -12.543 1.24458
rtoes 13.6303
lfemur -23.2152 7.08549 -18.7961
ltibia 25.2989
lfoot -10.8749 5.55625
ltoes 5.63352
582
root 0.434167 17.6532 -6.46546 11.1566 -1.04067 -1.62623
lowerback 4.52139 0.586933 -0.0301327
upperback 5.34792 0.757649 0.981303
thorax 2.95679 0.356568 1.01239
lowerneck -13.4754 0.0796138 -0.893349
upperneck 30.7809 0.0056941 1.10905
head 12.4045 0.0424718 0.578045
rclavicle -5.46658e-016 -1.88845e-015
rhumerus -34.6051 -10.8409 -79.2068
rradius 31.7381
rwrist 28.3797
rhand -17.1696 -26.2724
rfingers 7.12502
rthumb 9.07174 -56.0573
lclavicle -5.46658e-016 -1.88845e-015
lhumerus -34.7479 1.11498 83.9142
lradius 23.7249
lwrist 13.1554
lhand -27.56 -4.6441
lfingers 7.12502
lthumb -0.960961 25.3335
rfemur -24.8044 -1.7659 19.1151
rtibia 27.2572
rfoot -12.5613 1.24646
rtoes 13.5975
lfemur -23.1918 7.09355 -18.8135
ltibia 25.3008
lfoot -10.8825 5.56709
ltoes 5.61684
583
root 0.433788 17.6523 -6.46603 11.1421 -1.06465 -1.60942
lowerback 4.50241 0.587812 -0.0446573
upperback 5.37636 0.75829 0.974852
thorax 2.99689 0.356312 1.01436
lowerneck -13.4944 0.095959 -0.893979
upperneck 30.8552 0.0251044 1.12139
head 12.4386 0.0524307 0.586187
rclavicle 1.10325e-014 1.04362e-014
rhumerus -34.9264 -11.1063 -78.9152
rradius 31.4846
rwrist 28.5326
rhand -17.1727 -26.3242
rfingers 7.12502
rthumb 9.06871 -56.1093
lclavicle 1.10325e-014 1.04362e-014
lhumerus -35.0094 1.22335 83.8132
lradius 23.2377
lwrist 12.6164
lhand -27.52 -4.56582
lfingers 7.12502
lthumb -0.922296 25.4119
rfemur -24.8101 -1.75518 19.0963
rtibia 27.2881
rfoot -12.5754 1.24696
rtoes 13.5584
lfemur -23.1744 7.10852 -18.8313
ltibia 25.3006
lfoot -10.8894 5.57296
ltoes 5.6072
584
root 0.433387 17.6516 -6.46728 11.1316 -1.09168 -1.59522
lowerback 4.48775 0.589364 -0.0576234
upperback 5.40404 0.759888 0.968606
thorax 3.0338 0.356586 1.0156
lowerneck -13.5059 0.110557 -0.904624
upperneck 30.9236 0.0395532 1.14976
head 12.4687 0.0610703 0.601424
rclavicle -7.65321e-015 -1.05356e-014
rhumerus -35.2491 -11.3434 -78.6393
rradius 31.2969
rwrist 28.6191
rhand -17.1817 -26.3838
rfingers 7.12502
rthumb 9.05997 -56.1692
lclavicle -7.65321e-015 -1.05356e-014
lhumerus -35.27 1.33201 83.7173
lradius 22.7759
lwrist 12.1334
lhand -27.5456 -4.63832
lfingers 7.12502
lthumb -0.947014 25.3393
rfemur -24.8209 -1.74157 19.0806
rtibia 27.315
rfoot -12.585 1.24844
rtoes 13.5213
lfemur -23.1625 7.12752 -18.8472
ltibia 25.2994
lfoot -10.8959 5.57678
ltoes 5.60183
